HIERARCHY
ROOT hip
{
  OFFSET 0 0 0
  CHANNELS 6 Xposition Yposition Zposition Zrotation Yrotation Xrotation
  JOINT abdomen
  {
    OFFSET 0 20.6881 -0.73152
    CHANNELS 3 Zrotation Xrotation Yrotation
    JOINT chest
    {
      OFFSET 0 11.7043 -0.48768
      CHANNELS 3 Zrotation Xrotation Yrotation
      JOINT neck
      {
        OFFSET 0 22.1894 -2.19456
        CHANNELS 3 Zrotation Xrotation Yrotation
        JOINT head
        {
          OFFSET -0.24384 7.07133 1.2192
          CHANNELS 3 Zrotation Xrotation Yrotation
          JOINT leftEye
          {
            OFFSET 4.14528 8.04674 8.04672
            CHANNELS 3 Zrotation Xrotation Yrotation
            End Site
            {
              OFFSET 1 0 0
            }
          }
          JOINT rightEye
          {
            OFFSET -3.6576 8.04674 8.04672
            CHANNELS 3 Zrotation Xrotation Yrotation
            End Site
            {
              OFFSET 1 0 0
            }
          }
        }
      }
      JOINT rCollar
      {
        OFFSET -2.68224 19.2634 -4.8768
        CHANNELS 3 Zrotation Xrotation Yrotation
        JOINT rShldr
        {
          OFFSET -8.77824 -1.95073 1.46304
          CHANNELS 3 Zrotation Xrotation Yrotation
          JOINT rForeArm
          {
            OFFSET -28.1742 -1.7115 0.48768
            CHANNELS 3 Zrotation Xrotation Yrotation
            JOINT rHand
            {
              OFFSET -22.5879 0.773209 7.07136
              CHANNELS 3 Zrotation Xrotation Yrotation
              JOINT rThumb1
              {
                OFFSET -1.2192 -0.487915 3.41376
                CHANNELS 3 Zrotation Xrotation Yrotation
                JOINT rThumb2
                {
                  OFFSET -3.37035 -0.52449 3.41376
                  CHANNELS 3 Zrotation Xrotation Yrotation
                  End Site
                  {
                    OFFSET -1.78271 -1.18214 1.43049
                  }
                }
              }
              JOINT rIndex1
              {
                OFFSET -7.75947 0.938293 5.60832
                CHANNELS 3 Zrotation Xrotation Yrotation
                JOINT rIndex2
                {
                  OFFSET -2.54057 -0.884171 1.56538
                  CHANNELS 3 Zrotation Xrotation Yrotation
                  End Site
                  {
                    OFFSET -1.62519 -0.234802 1.16502
                  }
                }
              }
              JOINT rMid1
              {
                OFFSET -8.24714 1.18213 3.41376
                CHANNELS 3 Zrotation Xrotation Yrotation
                JOINT rMid2
                {
                  OFFSET -3.10165 -0.590103 1.0647
                  CHANNELS 3 Zrotation Xrotation Yrotation
                  End Site
                  {
                    OFFSET -2.48547 -0.328903 0.83742
                  }
                }
              }
              JOINT rRing1
              {
                OFFSET -8.82822 0.546677 1.51678
                CHANNELS 3 Zrotation Xrotation Yrotation
                JOINT rRing2
                {
                  OFFSET -2.60934 -0.819778 -0.0198488
                  CHANNELS 3 Zrotation Xrotation Yrotation
                  End Site
                  {
                    OFFSET -2.33842 -0.294052 0.168128
                  }
                }
              }
              JOINT rPinky1
              {
                OFFSET -8.27202 -0.0477905 -0.4584
                CHANNELS 3 Zrotation Xrotation Yrotation
                JOINT rPinky2
                {
                  OFFSET -1.82734 -0.647385 -0.700984
                  CHANNELS 3 Zrotation Xrotation Yrotation
                  End Site
                  {
                    OFFSET -1.69225 -0.51767 -0.607171
                  }
                }
              }
            }
          }
        }
      }
      JOINT lCollar
      {
        OFFSET 2.68224 19.2634 -4.8768
        CHANNELS 3 Zrotation Xrotation Yrotation
        JOINT lShldr
        {
          OFFSET 8.77824 -1.95073 1.46304
          CHANNELS 3 Zrotation Xrotation Yrotation
          JOINT lForeArm
          {
            OFFSET 28.1742 -1.7115 0.48768
            CHANNELS 3 Zrotation Xrotation Yrotation
            JOINT lHand
            {
              OFFSET 22.5879 0.773209 7.07136
              CHANNELS 3 Zrotation Xrotation Yrotation
              JOINT lThumb1
              {
                OFFSET 1.2192 -0.487915 3.41376
                CHANNELS 3 Zrotation Xrotation Yrotation
                JOINT lThumb2
                {
                  OFFSET 3.37035 -0.52449 3.41376
                  CHANNELS 3 Zrotation Xrotation Yrotation
                  End Site
                  {
                    OFFSET 1.78271 -1.18214 1.43049
                  }
                }
              }
              JOINT lIndex1
              {
                OFFSET 7.75947 0.938293 5.60832
                CHANNELS 3 Zrotation Xrotation Yrotation
                JOINT lIndex2
                {
                  OFFSET 2.54057 -0.884171 1.56538
                  CHANNELS 3 Zrotation Xrotation Yrotation
                  End Site
                  {
                    OFFSET 1.62519 -0.234802 1.16502
                  }
                }
              }
              JOINT lMid1
              {
                OFFSET 8.24714 1.18213 3.41376
                CHANNELS 3 Zrotation Xrotation Yrotation
                JOINT lMid2
                {
                  OFFSET 3.10165 -0.590103 1.0647
                  CHANNELS 3 Zrotation Xrotation Yrotation
                  End Site
                  {
                    OFFSET 2.48547 -0.328903 0.83742
                  }
                }
              }
              JOINT lRing1
              {
                OFFSET 8.82822 0.546677 1.51678
                CHANNELS 3 Zrotation Xrotation Yrotation
                JOINT lRing2
                {
                  OFFSET 2.60934 -0.819778 -0.0198488
                  CHANNELS 3 Zrotation Xrotation Yrotation
                  End Site
                  {
                    OFFSET 2.33842 -0.294052 0.168128
                  }
                }
              }
              JOINT lPinky1
              {
                OFFSET 8.27202 -0.0477905 -0.4584
                CHANNELS 3 Zrotation Xrotation Yrotation
                JOINT lPinky2
                {
                  OFFSET 1.82734 -0.647385 -0.700984
                  CHANNELS 3 Zrotation Xrotation Yrotation
                  End Site
                  {
                    OFFSET 1.69225 -0.51767 -0.607171
                  }
                }
              }
            }
          }
        }
      }
    }
  }
  JOINT rButtock
  {
    OFFSET -8.77824 4.35084 1.2192
    CHANNELS 3 Zrotation Xrotation Yrotation
    JOINT rThigh
    {
      OFFSET 0 -1.70687 -2.19456
      CHANNELS 3 Zrotation Xrotation Yrotation
      JOINT rShin
      {
        OFFSET 0 -36.8199 0.73152
        CHANNELS 3 Zrotation Xrotation Yrotation
        JOINT rFoot
        {
          OFFSET 0.73152 -45.1104 -5.12064
          CHANNELS 3 Zrotation Xrotation Yrotation
          End Site
          {
            OFFSET -1.1221 -3.69964 12.103
          }
        }
      }
    }
  }
  JOINT lButtock
  {
    OFFSET 8.77824 4.35084 1.2192
    CHANNELS 3 Zrotation Xrotation Yrotation
    JOINT lThigh
    {
      OFFSET 0 -1.70687 -2.19456
      CHANNELS 3 Zrotation Xrotation Yrotation
      JOINT lShin
      {
        OFFSET 0 -36.8199 0.73152
        CHANNELS 3 Zrotation Xrotation Yrotation
        JOINT lFoot
        {
          OFFSET -0.73152 -45.1104 -5.12064
          CHANNELS 3 Zrotation Xrotation Yrotation
          End Site
          {
            OFFSET 1.1221 -3.69964 12.103
          }
        }
      }
    }
  }
}
MOTION
Frames:	6
Frame Time:	0.00833333
265.47 84.7658 39.8413 0.0 0.0 0.0 -0.385198 -0.00168813 -0.0109959 -0.106234 -0.00256711 -0.0184049 3.87951e-15 0.0 -3.72721e-17 1.17034e-14 3.18055e-15 -1.21134e-16 -0.0 0.0 0.0 -0.0 0.0 0.0 2.0363e-15 3.49426e-18 9.93923e-17 4.25276e-14 -2.11209e-16 7.95139e-16 7.07425e-13 -2.11308e-13 -3.18055e-15 8.11145e-12 2.18216e-13 -6.67917e-14 1.91278e-11 1.66945e-14 -1.59028e-13 3.30209e-11 2.54444e-14 -2.79889e-13 1.9133e-11 1.82882e-14 -1.65389e-13 7.73091 5.47488 0.417314 1.91268e-11 1.67973e-14 -1.62208e-13 2.90554 0.965183 0.102902 1.91381e-11 1.69961e-14 -1.59823e-13 10.2786 0.731801 0.0259123 1.91209e-11 1.86858e-14 -1.52667e-13 2.22167 -0.733487 -0.20892 1.93952e-15 4.27076e-18 -1.49089e-16 3.90052e-14 1.67725e-16 -1.19271e-15 7.09761e-13 2.13892e-13 -1.90833e-14 8.10171e-12 -2.00151e-13 -5.08889e-14 1.91198e-11 2.47952e-14 -1.62208e-13 3.30273e-11 4.13472e-14 -2.79889e-13 1.91147e-11 2.50469e-14 -1.52667e-13 -7.73091 5.47488 -0.417314 1.912e-11 2.48481e-14 -1.65389e-13 -2.90554 0.965183 -0.102902 1.91199e-11 2.47487e-14 -1.61413e-13 -10.2786 0.731801 -0.0259123 1.91211e-11 2.54444e-14 -1.68569e-13 -2.22167 -0.733487 0.20892 -2.03217e-16 0.0 -3.88251e-19 0.221667 -2.58356 -0.0280813 -0.0074897 -0.872633 -0.0651411 -0.513128 3.45577 0.12935 2.03217e-16 0.0 3.88251e-19 -0.807758 -4.07085 0.0653907 0.00325564 1.82139 0.0244309 0.517694 2.24911 -0.105178
261.485 83.1157 33.1406 -79.583 -86.4058 88.5133 -0.0430866 -0.283768 -0.807559 0.347774 -0.230042 -0.248118 -1.78542 -1.54732 -0.798727 2.6456 -2.61713 -0.690358 -0.0 0.0 0.0 -0.0 0.0 0.0 -1.07817e-14 5.40807e-13 8.30858e-16 21.4776 3.67998 1.26193 -5.1901 -2.59016 7.83884 0.0257005 3.55774 0.496533 1.0069e-11 -3.52009e-11 -6.42944e-10 1.01915e-11 -6.35376e-11 -1.1115e-09 1.00762e-11 -3.51998e-11 -6.42953e-10 7.73091 5.47488 0.417314 1.00681e-11 -3.52015e-11 -6.42947e-10 2.90554 0.965183 0.102902 1.00791e-11 -3.52008e-11 -6.42947e-10 10.2786 0.731801 0.0259123 1.00645e-11 -3.51989e-11 -6.42943e-10 2.22167 -0.733487 -0.20892 -1.08648e-14 5.40809e-13 5.38116e-16 -23.0344 0.17839 -1.00657 3.311 -1.36005 -5.31767 -0.18944 9.68093 -1.29148 -9.97861e-10 7.04286e-10 1.17192e-09 -1.68852e-09 1.21442e-09 2.04981e-09 -9.97865e-10 7.04288e-10 1.17193e-09 -7.73091 5.47488 -0.417314 -9.97861e-10 7.04287e-10 1.17191e-09 -2.90554 0.965183 -0.102902 -9.97863e-10 7.04288e-10 1.17192e-09 -10.2786 0.731801 -0.0259123 -9.97861e-10 7.04288e-10 1.17191e-09 -2.22167 -0.733487 0.20892 -2.03217e-16 0.0 -3.88251e-19 0.3166 -8.52225 -0.104447 -0.0047102 6.31999 0.0529296 -0.749473 0.959959 -3.22614 2.03217e-16 0.0 3.88251e-19 0.0669506 -7.6609 -0.686784 -0.00658812 5.44549 -0.0463068 0.503794 -0.293454 -0.0331927
261.462 83.1123 33.1234 -80.9486 -86.3718 89.9217 0.313412 -0.577085 -1.66129 0.829022 -0.472075 -0.494255 -3.71894 -3.18217 -1.64485 5.36847 -5.38514 -1.42506 -0.0 0.0 0.0 -0.0 0.0 0.0 -2.36351e-14 1.07733e-12 1.30452e-15 44.0064 7.57326 2.61446 -9.91722 -5.16963 16.1818 -0.0146573 7.31152 1.02695 -7.02287e-12 -7.54772e-11 -1.34381e-09 -2.71628e-11 -1.36168e-10 -2.32304e-09 -7.01335e-12 -7.54768e-11 -1.34382e-09 7.73091 5.47488 0.417314 -7.02335e-12 -7.54786e-11 -1.34381e-09 2.90554 0.965183 0.102902 -7.01273e-12 -7.54774e-11 -1.34382e-09 10.2786 0.731801 0.0259123 -7.0245e-12 -7.54753e-11 -1.34382e-09 2.22167 -0.733487 -0.20892 -2.37021e-14 1.07733e-12 9.62863e-16 -47.3794 0.368725 -2.07125 6.54091 -2.76055 -10.9535 0.112045 19.8924 -2.78451 -2.10433e-09 1.46844e-09 2.44059e-09 -3.56172e-09 2.53215e-09 4.26906e-09 -2.10433e-09 1.46845e-09 2.4406e-09 -7.73091 5.47488 -0.417314 -2.10433e-09 1.46845e-09 2.44059e-09 -2.90554 0.965183 -0.102902 -2.10433e-09 1.46845e-09 2.44059e-09 -10.2786 0.731801 -0.0259123 -2.10433e-09 1.46845e-09 2.44058e-09 -2.22167 -0.733487 0.20892 -2.03217e-16 0.0 -3.88251e-19 0.401743 -14.7906 -0.181289 -0.0347833 13.9105 0.182103 -1.31552 -1.64952 -6.78116 2.03217e-16 0.0 3.88251e-19 0.886281 -11.4489 -1.50794 -0.00709159 9.2705 -0.122082 0.496065 -2.96571 0.0426006
261.425 83.1087 33.1176 -81.952 -86.3798 90.9464 0.617611 -0.847267 -2.40092 1.25032 -0.684947 -0.707588 -5.48599 -4.63835 -2.40318 7.74613 -7.84682 -2.08848 -0.0 0.0 0.0 -0.0 0.0 0.0 -3.64176e-14 1.62241e-12 2.29379e-15 63.939 11.0183 3.84905 -13.4965 -7.18994 23.6899 -0.110638 10.67 1.51289 -8.04882e-12 -1.05636e-10 -1.92851e-09 -3.54674e-11 -1.90664e-10 -3.33395e-09 -8.03741e-12 -1.05636e-10 -1.92853e-09 7.73091 5.47488 0.417314 -8.04909e-12 -1.05638e-10 -1.92852e-09 2.90554 0.965183 0.102902 -8.03886e-12 -1.05637e-10 -1.92852e-09 10.2786 0.731801 0.0259123 -8.04823e-12 -1.05634e-10 -1.92852e-09 2.22167 -0.733487 -0.20892 -3.64735e-14 1.62242e-12 1.91253e-15 -69.0845 0.53451 -3.01982 9.185 -3.9398 -15.9873 0.898919 28.9794 -4.3669 -3.03182e-09 2.11281e-09 3.51607e-09 -5.13161e-09 3.64318e-09 6.15e-09 -3.03182e-09 2.11281e-09 3.51608e-09 -7.73091 5.47488 -0.417314 -3.03182e-09 2.11281e-09 3.51607e-09 -2.90554 0.965183 -0.102902 -3.03183e-09 2.11281e-09 3.51607e-09 -10.2786 0.731801 -0.0259123 -3.03182e-09 2.11281e-09 3.51607e-09 -2.22167 -0.733487 0.20892 -2.03217e-16 0.0 -3.88251e-19 0.455995 -20.3995 -0.270757 -0.0925457 20.705 0.307982 -2.09601 -3.96662 -9.95938 2.03217e-16 0.0 3.88251e-19 1.52478 -14.8317 -2.24733 0.00113799 12.6936 -0.191819 0.495174 -5.37858 0.111106
261.335 83.1137 33.1503 -76.4693 -86.3586 85.4012 0.807621 -1.06026 -2.8551 1.52579 -0.824963 -0.83887 -6.74521 -5.65132 -2.93538 9.39622 -9.54706 -2.55701 -0.0 0.0 0.0 -0.0 0.0 0.0 -4.90229e-14 2.18892e-12 4.57205e-15 77.7348 13.3635 4.72776 -15.6533 -8.36902 28.9441 -0.213309 13.0432 1.86577 3.10899e-11 -1.10502e-10 -2.22281e-09 2.8852e-11 -1.99822e-10 -3.84329e-09 3.11022e-11 -1.10501e-10 -2.22282e-09 7.73091 5.47488 0.417314 3.10896e-11 -1.10504e-10 -2.22281e-09 2.90554 0.965183 0.102902 3.10994e-11 -1.10502e-10 -2.22281e-09 10.2786 0.731801 0.0259123 3.10913e-11 -1.105e-10 -2.22282e-09 2.22167 -0.733487 -0.20892 -4.90805e-14 2.18892e-12 4.17448e-15 -84.2037 0.639568 -3.67795 10.8908 -4.70059 -19.4831 1.82021 35.3145 -5.71394 -3.5119e-09 2.45768e-09 4.10859e-09 -5.94319e-09 4.23746e-09 7.18519e-09 -3.51189e-09 2.45769e-09 4.10859e-09 -7.73091 5.47488 -0.417314 -3.51189e-09 2.45769e-09 4.10858e-09 -2.90554 0.965183 -0.102902 -3.5119e-09 2.45769e-09 4.10859e-09 -10.2786 0.731801 -0.0259123 -3.51189e-09 2.45769e-09 4.10858e-09 -2.22167 -0.733487 0.20892 -2.03217e-16 0.0 -3.88251e-19 0.460915 -24.3598 -0.3826 -0.15293 25.5097 0.407033 -2.8027 -5.62326 -12.1624 2.03217e-16 0.0 3.88251e-19 1.92476 -17.2103 -2.73238 0.0118423 15.1122 -0.242804 0.498154 -7.14298 0.160782
261.276 83.1113 33.1718 -74.2787 -86.3328 83.2078 0.846923 -1.20281 -2.88399 1.59637 -0.862923 -0.847974 -7.25209 -6.04891 -3.1456 10.0876 -10.1848 -2.7394 -0.0 0.0 0.0 -0.0 0.0 0.0 -6.03921e-14 2.90143e-12 1.61722e-14 83.0952 14.1955 5.067 -16.4086 -8.75263 30.9602 -0.264177 14.036 2.01615 1.39456e-10 -9.16664e-11 -2.03581e-09 2.18125e-10 -1.65269e-10 -3.52144e-09 1.39468e-10 -9.1663e-11 -2.03582e-09 7.73091 5.47488 0.417314 1.39455e-10 -9.16664e-11 -2.03581e-09 2.90554 0.965183 0.102902 1.39464e-10 -9.16657e-11 -2.03581e-09 10.2786 0.731801 0.0259123 1.39456e-10 -9.16628e-11 -2.03581e-09 2.22167 -0.733487 -0.20892 -6.04721e-14 2.90144e-12 1.57921e-14 -90.1093 0.661539 -3.92949 11.5065 -4.96778 -20.804 2.29443 37.8513 -6.33286 -3.27384e-09 2.32899e-09 3.94463e-09 -5.53715e-09 4.01437e-09 6.89516e-09 -3.27384e-09 2.329e-09 3.94464e-09 -7.73091 5.47488 -0.417314 -3.27383e-09 2.32899e-09 3.94463e-09 -2.90554 0.965183 -0.102902 -3.27384e-09 2.329e-09 3.94463e-09 -10.2786 0.731801 -0.0259123 -3.27384e-09 2.329e-09 3.94463e-09 -2.22167 -0.733487 0.20892 -2.03217e-16 0.0 -3.88251e-19 0.419086 -26.0346 -0.504941 -0.182962 27.5358 0.45298 -3.12936 -6.40343 -12.9456 2.03217e-16 0.0 3.88251e-19 2.09747 -18.1971 -2.8024 0.0170116 16.1188 -0.265075 0.503322 -7.99867 0.198644
